M48
; DRILL file {KiCad 7.0.10} date Wed Apr 10 11:57:23 2024
; FORMAT={-:-/ absolute / inch / decimal}
; #@! TF.CreationDate,2024-04-10T11:57:23+09:00
; #@! TF.GenerationSoftware,Kicad,Pcbnew,7.0.10
; #@! TF.FileFunction,Plated,1,2,PTH
FMAT,2
INCH
; #@! TA.AperFunction,Plated,PTH,ViaDrill
T1C0.0157
; #@! TA.AperFunction,Plated,PTH,ComponentDrill
T2C0.0276
; #@! TA.AperFunction,Plated,PTH,ComponentDrill
T3C0.0300
; #@! TA.AperFunction,Plated,PTH,ComponentDrill
T4C0.0315
; #@! TA.AperFunction,Plated,PTH,ComponentDrill
T5C0.0354
; #@! TA.AperFunction,Plated,PTH,ComponentDrill
T6C0.0374
; #@! TA.AperFunction,Plated,PTH,ComponentDrill
T7C0.0394
%
G90
G05
T1
X4.2Y-4.31
X4.23Y-3.07
X4.23Y-4.36
X4.3307Y-2.9528
X4.3543Y-2.5591
X4.3583Y-2.6496
X4.3622Y-2.7402
X4.3661Y-2.4646
X4.437Y-3.8425
X4.437Y-3.9567
X4.44Y-3.71
X4.4409Y-4.0394
X4.4449Y-3.0276
X4.4449Y-4.315
X4.4449Y-5.1535
X4.4488Y-4.4055
X4.4488Y-5.315
X4.4488Y-5.5118
X4.4528Y-4.4921
X4.4567Y-4.6102
X4.4567Y-4.6929
X4.4567Y-4.8701
X4.4567Y-5.0433
X4.4831Y-4.4531
X4.49Y-3.78
X4.5276Y-3.2953
X4.5276Y-4.315
X4.5276Y-4.4055
X4.5276Y-5.9055
X4.5315Y-3.4252
X4.5315Y-3.5669
X4.5315Y-3.7126
X4.5315Y-3.8386
X4.5315Y-3.9606
X4.5315Y-4.0394
X4.5315Y-5.2323
X4.5669Y-5.3937
X4.5669Y-5.6299
X4.57Y-3.03
X4.57Y-3.11
X4.57Y-3.39
X4.5748Y-5.1299
X4.6063Y-4.9291
X4.6102Y-4.4567
X4.6102Y-4.6102
X4.6102Y-4.689
X4.6102Y-4.8071
X4.6181Y-3.1457
X4.62Y-3.2
X4.62Y-5.0
X4.6339Y-5.315
X4.66Y-4.45
X4.6654Y-5.2402
X4.67Y-3.27
X4.67Y-5.15
X4.6772Y-4.9606
X4.68Y-4.66
X4.6811Y-4.7205
X4.6969Y-5.189
X4.7047Y-2.5551
X4.7047Y-2.6535
X4.7047Y-2.7402
X4.7087Y-2.4646
X4.7087Y-2.9921
X4.7126Y-3.2402
X4.72Y-4.54
X4.7244Y-2.1654
X4.76Y-5.09
X4.7638Y-4.9606
X4.7638Y-5.0394
X4.7835Y-4.0945
X4.7835Y-4.4016
X4.7835Y-4.748
X4.7874Y-2.5551
X4.7874Y-2.6535
X4.7874Y-2.7441
X4.7874Y-2.9921
X4.7874Y-3.1496
X4.7874Y-3.252
X4.7874Y-3.3504
X4.7874Y-3.4528
X4.7874Y-3.5512
X4.7874Y-3.6535
X4.7874Y-3.752
X4.7874Y-3.8543
X4.7874Y-3.9528
X4.7874Y-4.5
X4.7874Y-4.5866
X4.7874Y-4.6496
X4.7874Y-4.8504
X4.7874Y-5.3189
X4.815Y-2.4685
X4.8976Y-3.1535
X4.9213Y-5.3937
X4.9213Y-5.6299
X4.9213Y-5.9055
X4.9331Y-5.315
X4.97Y-5.35
X4.9882Y-2.5551
X4.9882Y-2.6535
X4.9882Y-2.7441
X4.9921Y-2.9921
X4.9961Y-3.4528
X4.9961Y-3.5472
X5.0Y-3.1496
X5.0039Y-2.4646
X5.0197Y-5.2402
X5.04Y-5.44
X5.05Y-2.47
X5.0615Y-4.19
X5.0748Y-5.189
X5.0787Y-4.9803
X5.0787Y-5.0472
X5.0827Y-5.4921
X5.11Y-5.28
X5.1181Y-2.1654
X5.12Y-2.46
X5.12Y-4.13
X5.13Y-4.19
X5.15Y-5.12
X5.16Y-4.33
X5.1614Y-2.6535
X5.1614Y-2.7441
X5.1614Y-2.9882
X5.1614Y-3.1496
X5.1614Y-3.2126
X5.1614Y-3.2913
X5.1654Y-2.5551
X5.1654Y-3.4567
X5.1654Y-3.9094
X5.1654Y-4.2441
X5.1732Y-5.4606
X5.1732Y-5.5276
X5.21Y-3.42
X5.2205Y-5.2598
X5.2402Y-4.748
X5.2402Y-4.8071
X5.2402Y-4.8898
X5.2402Y-5.0512
X5.2402Y-5.1299
X5.2402Y-5.1969
X5.2426Y-3.9657
X5.27Y-5.26
X5.29Y-4.0128
X5.315Y-5.9055
X5.3346Y-3.8071
X5.34Y-4.06
X5.38Y-4.06
X5.3858Y-5.5315
X5.3898Y-5.6339
X5.3937Y-5.374
X5.4166Y-4.06
X5.46Y-5.34
X5.46Y-5.51
X5.5118Y-2.1654
X5.5197Y-5.5591
X5.5197Y-5.6299
X5.5276Y-4.311
X5.5276Y-4.5118
X5.5315Y-3.6181
X5.5315Y-4.752
X5.5315Y-4.811
X5.5315Y-4.8898
X5.5315Y-5.0472
X5.5315Y-5.1339
X5.5315Y-5.2717
X5.5315Y-5.3701
X5.563Y-3.6929
X5.5748Y-4.2283
X5.5787Y-3.2992
X5.6142Y-4.6496
X5.6198Y-5.42
X5.689Y-4.1378
X5.689Y-4.2283
X5.7087Y-2.7559
X5.7087Y-2.9528
X5.7087Y-5.9055
X5.9055Y-2.1654
X5.9055Y-5.2874
X5.9173Y-4.7559
X5.9173Y-4.8071
X5.9173Y-4.8898
X5.9213Y-5.0512
X5.9213Y-5.1299
X5.96Y-5.28
X5.9803Y-3.3071
X5.9803Y-3.3819
X5.9803Y-3.6102
X5.9803Y-3.7008
X5.9803Y-3.7874
X5.9803Y-3.9134
X5.9803Y-4.1378
X5.9803Y-4.2283
X5.9803Y-4.3071
X5.99Y-3.26
X6.0Y-4.8071
X6.0Y-5.0472
X6.0Y-5.1299
X6.0039Y-4.8898
X6.02Y-4.43
X6.0433Y-3.1496
X6.0591Y-3.6102
X6.0591Y-3.7008
X6.0591Y-3.7874
X6.0591Y-3.9134
X6.0591Y-4.311
X6.063Y-3.3031
X6.063Y-3.3858
X6.063Y-4.1417
X6.063Y-4.2283
X6.1024Y-5.9055
X6.11Y-3.16
X6.11Y-4.06
X6.14Y-3.71
X6.14Y-4.06
X6.1496Y-3.189
X6.1496Y-3.3031
X6.1496Y-3.3858
X6.1535Y-3.6102
X6.1693Y-4.8071
X6.1693Y-4.8898
X6.1693Y-5.0472
X6.1693Y-5.1299
X6.17Y-4.06
X6.19Y-4.04
X6.21Y-5.29
X6.252Y-4.8071
X6.252Y-4.8898
X6.252Y-5.0472
X6.252Y-5.1299
X6.2638Y-5.2874
X6.2638Y-5.3701
X6.2992Y-2.1654
X6.4016Y-5.5276
X6.4606Y-4.1417
X6.4606Y-4.2283
X6.48Y-4.01
X6.4882Y-5.2874
X6.4921Y-5.3701
X6.4961Y-2.7559
X6.4961Y-2.9528
X6.4961Y-5.9055
X6.5Y-4.03
X6.52Y-4.05
X6.5354Y-4.311
X6.5394Y-4.4921
X6.5551Y-4.6457
X6.5669Y-4.0197
X6.5748Y-4.2283
X6.5945Y-5.3898
X6.6142Y-5.2598
X6.6181Y-4.8898
X6.6181Y-5.0472
X6.6181Y-5.1299
X6.622Y-4.4094
X6.622Y-4.8071
X6.68Y-5.39
X6.6929Y-2.1654
X6.7068Y-5.2929
X6.78Y-5.53
X6.8425Y-4.0276
X6.8898Y-5.9055
X6.9409Y-4.748
X6.9409Y-5.0
X6.9409Y-5.126
X6.96Y-4.04
X6.96Y-4.25
X6.9685Y-2.5591
X6.9685Y-2.6496
X6.9685Y-2.7441
X6.9685Y-2.9882
X6.9685Y-3.1535
X6.9685Y-3.3031
X6.9685Y-3.3858
X6.9685Y-3.6102
X6.9685Y-3.8268
X6.9685Y-3.9173
X6.9764Y-5.4882
X6.98Y-5.03
X7.01Y-2.53
X7.01Y-5.53
X7.0197Y-4.8898
X7.02Y-4.6
X7.0315Y-5.3898
X7.04Y-2.62
X7.0551Y-5.1732
X7.0591Y-2.5118
X7.0709Y-4.6378
X7.0748Y-4.8071
X7.08Y-4.2
X7.08Y-4.3
X7.0866Y-2.1654
X7.0866Y-5.5394
X7.09Y-2.73
X7.1102Y-5.2756
X7.12Y-3.89
X7.1299Y-3.0
X7.1398Y-3.8502
X7.14Y-3.07
X7.14Y-4.8
X7.15Y-4.54
X7.18Y-3.34
X7.18Y-3.7215
X7.1811Y-3.3898
X7.1811Y-3.6102
X7.1811Y-4.8858
X7.185Y-3.2874
X7.185Y-3.9488
X7.189Y-3.1654
X7.189Y-4.6378
X7.1929Y-4.748
X7.21Y-3.12
X7.2835Y-5.9055
X7.2992Y-5.6299
X7.3976Y-4.6496
X7.3976Y-4.748
X7.4055Y-4.1614
X7.4173Y-3.2087
X7.42Y-3.66
X7.42Y-3.77
X7.4291Y-3.5906
X7.43Y-3.43
X7.43Y-3.52
X7.4528Y-3.7165
X7.4764Y-3.4213
X7.4764Y-3.4803
X7.4803Y-2.1654
X7.4882Y-5.1575
X7.4921Y-5.063
X7.5Y-5.6299
X7.51Y-3.15
X7.5118Y-4.2244
X7.5157Y-4.311
X7.52Y-3.61
X7.5276Y-5.3386
X7.53Y-4.4215
X7.5354Y-5.2126
X7.5394Y-5.7441
X7.5591Y-3.4173
X7.5591Y-3.4843
X7.563Y-3.2087
X7.57Y-4.52
X7.5787Y-4.4016
X7.5866Y-5.3937
X7.5866Y-5.5433
X7.6063Y-4.5787
X7.6772Y-5.9055
X7.685Y-4.4961
X7.689Y-4.315
X7.6969Y-4.6457
X7.6969Y-5.5669
X7.7Y-4.45
X7.7047Y-3.4173
X7.76Y-4.29
X7.8031Y-4.5315
X7.8425Y-4.4055
X7.8543Y-4.2402
X7.8819Y-3.4213
X7.9291Y-3.2087
X7.9331Y-3.689
X7.9331Y-4.1102
X7.9488Y-2.3898
X7.9843Y-3.2756
X7.9882Y-3.4724
X7.9882Y-3.5748
X7.9882Y-4.4803
X8.0079Y-2.9016
X8.0433Y-2.4724
T2
X5.27Y-4.7
X5.57Y-4.7
X5.66Y-4.7
X5.96Y-4.7
X6.21Y-4.7
X6.51Y-4.7
X6.6Y-4.7
X6.9Y-4.7
T3
X7.6425Y-3.3252
X7.6425Y-3.4252
X7.6425Y-3.5252
X7.6425Y-3.6252
X7.9425Y-3.3252
X7.9425Y-3.4252
X7.9425Y-3.5252
X7.9425Y-3.6252
T4
X5.3246Y-3.8754
X5.3246Y-4.1754
X5.4246Y-3.8754
X5.4246Y-4.1754
X5.5246Y-3.8754
X5.5246Y-4.1754
X5.575Y-4.3516
X5.575Y-4.5484
X5.6246Y-3.8754
X5.6246Y-4.1754
X6.5246Y-3.8754
X6.5246Y-4.1754
X6.6Y-4.3266
X6.6Y-4.5234
X6.6246Y-3.8754
X6.6246Y-4.1754
X6.7246Y-3.8754
X6.7246Y-4.1754
X6.75Y-4.375
X6.75Y-4.525
X6.8246Y-3.8754
X6.8246Y-4.1754
X7.05Y-4.375
X7.05Y-4.525
X7.475Y-4.775
X7.475Y-5.0
X7.475Y-5.225
X7.475Y-5.45
X7.6504Y-2.5669
X7.6504Y-2.6669
X7.6504Y-2.7669
X7.6504Y-2.8669
X7.775Y-4.775
X7.775Y-5.0
X7.775Y-5.225
X7.775Y-5.45
X7.9504Y-2.5669
X7.9504Y-2.6669
X7.9504Y-2.7669
X7.9504Y-2.8669
T5
X7.9Y-4.7815
X7.9Y-5.0
X7.9Y-5.2185
X7.9Y-5.45
X8.0Y-4.7815
X8.0Y-5.0
X8.0Y-5.2185
X8.0Y-5.45
T6
X4.3Y-2.5047
X4.3Y-2.6031
X4.3Y-2.7016
X4.3Y-2.8
X4.3Y-2.8984
X4.3Y-3.1531
X4.3Y-3.2516
X4.3Y-3.35
X4.3Y-3.4484
X4.3Y-3.5469
X4.3Y-3.8031
X4.3Y-3.9016
X4.3Y-4.0
X4.3Y-4.0984
X4.3Y-4.1969
X4.3Y-4.4531
X4.3Y-4.5516
X4.3Y-4.65
X4.3Y-4.7484
X4.3Y-4.8469
X4.3Y-5.1031
X4.3Y-5.2016
X4.3Y-5.3
X4.3Y-5.3984
X4.3Y-5.4969
X5.0331Y-5.5906
X5.1315Y-5.5906
X5.2299Y-5.5906
X5.3283Y-5.5906
X5.5906Y-5.5906
X5.689Y-5.5906
X5.7874Y-5.5906
X5.8858Y-5.5906
X6.3866Y-5.6
X6.485Y-5.6
X6.5835Y-5.6
X6.6819Y-5.6
X6.939Y-5.6
X7.0374Y-5.6
X7.1358Y-5.6
X7.2343Y-5.6
X7.9134Y-4.1831
X7.9134Y-4.2815
X7.9134Y-4.3799
X7.9134Y-4.4783
T7
X4.85Y-3.2
X4.85Y-3.3
X4.85Y-3.4
X4.85Y-3.5
X4.85Y-3.6
X4.85Y-3.7
X4.85Y-3.8
X4.85Y-3.9
X4.85Y-4.0
X4.85Y-4.1
X4.85Y-4.2
X4.85Y-4.3
X4.85Y-4.4
X4.85Y-4.5
X4.85Y-4.6
X4.85Y-4.7
X4.85Y-4.8
X4.85Y-4.9
X4.85Y-5.0
X4.95Y-3.2
X4.95Y-3.3
X4.95Y-3.4
X4.95Y-3.5
X4.95Y-3.6
X4.95Y-3.7
X4.95Y-3.8
X4.95Y-3.9
X4.95Y-4.0
X4.95Y-4.1
X4.95Y-4.2
X4.95Y-4.3
X4.95Y-4.4
X4.95Y-4.5
X4.95Y-4.6
X4.95Y-4.7
X4.95Y-4.8
X4.95Y-4.9
X4.95Y-5.0
X5.2002Y-5.33
X5.3002Y-5.33
X5.6198Y-5.325
X5.7198Y-5.325
X6.55Y-5.33
X6.65Y-5.33
X6.9698Y-5.33
X7.0698Y-5.33
X7.25Y-3.2
X7.25Y-3.3
X7.25Y-3.4
X7.25Y-3.5
X7.25Y-3.6
X7.25Y-3.7
X7.25Y-3.8
X7.25Y-3.9
X7.25Y-4.0
X7.25Y-4.1
X7.25Y-4.2
X7.25Y-4.3
X7.25Y-4.4
X7.25Y-4.5
X7.25Y-4.6
X7.25Y-4.7
X7.25Y-4.8
X7.25Y-4.9
X7.25Y-5.0
X7.35Y-3.2
X7.35Y-3.3
X7.35Y-3.4
X7.35Y-3.5
X7.35Y-3.6
X7.35Y-3.7
X7.35Y-3.8
X7.35Y-3.9
X7.35Y-4.0
X7.35Y-4.1
X7.35Y-4.2
X7.35Y-4.3
X7.35Y-4.4
X7.35Y-4.5
X7.35Y-4.6
X7.35Y-4.7
X7.35Y-4.8
X7.35Y-4.9
X7.35Y-5.0
M30
