%TF.GenerationSoftware,KiCad,Pcbnew,7.0.10*%
%TF.CreationDate,2024-04-10T11:57:21+09:00*%
%TF.ProjectId,Nucleo-F446RE_header,4e75636c-656f-42d4-9634-343652455f68,rev?*%
%TF.SameCoordinates,Original*%
%TF.FileFunction,Soldermask,Top*%
%TF.FilePolarity,Negative*%
%FSLAX46Y46*%
G04 Gerber Fmt 4.6, Leading zero omitted, Abs format (unit mm)*
G04 Created by KiCad (PCBNEW 7.0.10) date 2024-04-10 11:57:21*
%MOMM*%
%LPD*%
G01*
G04 APERTURE LIST*
G04 Aperture macros list*
%AMRoundRect*
0 Rectangle with rounded corners*
0 $1 Rounding radius*
0 $2 $3 $4 $5 $6 $7 $8 $9 X,Y pos of 4 corners*
0 Add a 4 corners polygon primitive as box body*
4,1,4,$2,$3,$4,$5,$6,$7,$8,$9,$2,$3,0*
0 Add four circle primitives for the rounded corners*
1,1,$1+$1,$2,$3*
1,1,$1+$1,$4,$5*
1,1,$1+$1,$6,$7*
1,1,$1+$1,$8,$9*
0 Add four rect primitives between the rounded corners*
20,1,$1+$1,$2,$3,$4,$5,0*
20,1,$1+$1,$4,$5,$6,$7,0*
20,1,$1+$1,$6,$7,$8,$9,0*
20,1,$1+$1,$8,$9,$2,$3,0*%
G04 Aperture macros list end*
%ADD10C,1.600000*%
%ADD11O,1.600000X1.600000*%
%ADD12R,1.700000X1.700000*%
%ADD13O,1.700000X1.700000*%
%ADD14R,1.600000X1.600000*%
%ADD15RoundRect,0.250000X-0.725000X0.600000X-0.725000X-0.600000X0.725000X-0.600000X0.725000X0.600000X0*%
%ADD16O,1.950000X1.700000*%
%ADD17O,2.800000X2.000000*%
%ADD18RoundRect,0.250000X-0.600000X-0.725000X0.600000X-0.725000X0.600000X0.725000X-0.600000X0.725000X0*%
%ADD19O,1.700000X1.950000*%
%ADD20C,3.200000*%
%ADD21R,1.800000X1.800000*%
%ADD22C,1.800000*%
%ADD23C,1.400000*%
%ADD24O,1.400000X1.400000*%
%ADD25RoundRect,0.250000X0.725000X-0.600000X0.725000X0.600000X-0.725000X0.600000X-0.725000X-0.600000X0*%
%ADD26C,1.700000*%
%ADD27C,1.524000*%
G04 APERTURE END LIST*
D10*
%TO.C,R5*%
X189865000Y-132715000D03*
D11*
X197485000Y-132715000D03*
%TD*%
D12*
%TO.C,SW5*%
X177033000Y-135382000D03*
D13*
X179573000Y-135382000D03*
%TD*%
D14*
%TO.C,SW1*%
X194320000Y-65200000D03*
D11*
X194320000Y-67740000D03*
X194320000Y-70280000D03*
X194320000Y-72820000D03*
X201940000Y-72820000D03*
X201940000Y-70280000D03*
X201940000Y-67740000D03*
X201940000Y-65200000D03*
%TD*%
D15*
%TO.C,J9*%
X109220000Y-129620000D03*
D16*
X109220000Y-132120000D03*
X109220000Y-134620000D03*
X109220000Y-137120000D03*
X109220000Y-139620000D03*
%TD*%
D10*
%TO.C,R1*%
X171450000Y-111125000D03*
D11*
X179070000Y-111125000D03*
%TD*%
D15*
%TO.C,J7*%
X109220000Y-96600000D03*
D16*
X109220000Y-99100000D03*
X109220000Y-101600000D03*
X109220000Y-104100000D03*
X109220000Y-106600000D03*
%TD*%
D17*
%TO.C,J4*%
X180000000Y-148740000D03*
D18*
X176250000Y-142240000D03*
D19*
X178750000Y-142240000D03*
X181250000Y-142240000D03*
X183750000Y-142240000D03*
%TD*%
D20*
%TO.C,H2*%
X200000000Y-57000000D03*
%TD*%
D14*
%TO.C,U2*%
X142865000Y-98435000D03*
D11*
X140325000Y-98435000D03*
X137785000Y-98435000D03*
X135245000Y-98435000D03*
X135245000Y-106055000D03*
X137785000Y-106055000D03*
X140325000Y-106055000D03*
X142865000Y-106055000D03*
%TD*%
D21*
%TO.C,D3*%
X203200000Y-132550000D03*
D22*
X200660000Y-132550000D03*
%TD*%
D12*
%TO.C,SW4*%
X168910000Y-135382000D03*
D13*
X166370000Y-135382000D03*
%TD*%
D17*
%TO.C,J2*%
X145750000Y-148500000D03*
D18*
X142000000Y-142000000D03*
D19*
X144500000Y-142000000D03*
X147000000Y-142000000D03*
X149500000Y-142000000D03*
%TD*%
D23*
%TO.C,R7*%
X151384000Y-119380000D03*
D24*
X143764000Y-119380000D03*
%TD*%
D20*
%TO.C,H3*%
X110000000Y-147000000D03*
%TD*%
D10*
%TO.C,R6*%
X189865000Y-138430000D03*
D11*
X197485000Y-138430000D03*
%TD*%
D15*
%TO.C,J8*%
X109220000Y-113110000D03*
D16*
X109220000Y-115610000D03*
X109220000Y-118110000D03*
X109220000Y-120610000D03*
X109220000Y-123110000D03*
%TD*%
D10*
%TO.C,R3*%
X189865000Y-121285000D03*
D11*
X197485000Y-121285000D03*
%TD*%
D25*
%TO.C,J10*%
X201000000Y-113750000D03*
D16*
X201000000Y-111250000D03*
X201000000Y-108750000D03*
X201000000Y-106250000D03*
%TD*%
D21*
%TO.C,D2*%
X203200000Y-127000000D03*
D22*
X200660000Y-127000000D03*
%TD*%
D10*
%TO.C,R4*%
X189865000Y-127000000D03*
D11*
X197485000Y-127000000D03*
%TD*%
D10*
%TO.C,R2*%
X171450000Y-114935000D03*
D11*
X179070000Y-114935000D03*
%TD*%
D23*
%TO.C,R8*%
X141478000Y-119380000D03*
D24*
X133858000Y-119380000D03*
%TD*%
D23*
%TO.C,R9*%
X165354000Y-119380000D03*
D24*
X157734000Y-119380000D03*
%TD*%
D17*
%TO.C,J1*%
X131590000Y-148500000D03*
D18*
X127840000Y-142000000D03*
D19*
X130340000Y-142000000D03*
X132840000Y-142000000D03*
X135340000Y-142000000D03*
%TD*%
D10*
%TO.C,C1*%
X141605000Y-115530000D03*
X141605000Y-110530000D03*
%TD*%
D12*
%TO.C,SW3*%
X142743000Y-135255000D03*
D13*
X145283000Y-135255000D03*
%TD*%
D15*
%TO.C,J6*%
X109220000Y-80090000D03*
D16*
X109220000Y-82590000D03*
X109220000Y-85090000D03*
X109220000Y-87590000D03*
X109220000Y-90090000D03*
%TD*%
D26*
%TO.C,U1*%
X125730000Y-99060000D03*
X125730000Y-101600000D03*
X186690000Y-119380000D03*
X184150000Y-88900000D03*
X123190000Y-88900000D03*
X125730000Y-86360000D03*
X123190000Y-104140000D03*
X125730000Y-88900000D03*
X125730000Y-104140000D03*
X125730000Y-106680000D03*
X184150000Y-91440000D03*
X186690000Y-104140000D03*
X125730000Y-93980000D03*
X123190000Y-91440000D03*
X123190000Y-93980000D03*
X125730000Y-91440000D03*
X125730000Y-111760000D03*
X186690000Y-91440000D03*
X186690000Y-101600000D03*
X186690000Y-124460000D03*
X186690000Y-127000000D03*
X125730000Y-114300000D03*
X125730000Y-116840000D03*
X184150000Y-124460000D03*
X184150000Y-127000000D03*
X125730000Y-119380000D03*
X184150000Y-93980000D03*
X184150000Y-96520000D03*
X184150000Y-99060000D03*
X184150000Y-109220000D03*
X184150000Y-106680000D03*
X184150000Y-121920000D03*
X186690000Y-96520000D03*
X186690000Y-93980000D03*
X123190000Y-96520000D03*
X123190000Y-99060000D03*
X123190000Y-101600000D03*
X125730000Y-121920000D03*
X186690000Y-109220000D03*
X186690000Y-106680000D03*
X184150000Y-119380000D03*
X184150000Y-114300000D03*
X184150000Y-116840000D03*
X184150000Y-101600000D03*
X123190000Y-106680000D03*
X184150000Y-83820000D03*
X184150000Y-86360000D03*
X184150000Y-111760000D03*
X186690000Y-99060000D03*
X186690000Y-116840000D03*
X186690000Y-114300000D03*
X186690000Y-111760000D03*
X125730000Y-127000000D03*
X125730000Y-124460000D03*
X123190000Y-124460000D03*
X123190000Y-127000000D03*
X186690000Y-121920000D03*
X186690000Y-86360000D03*
X186690000Y-83820000D03*
X184150000Y-104140000D03*
X186690000Y-81280000D03*
X184150000Y-81280000D03*
X123190000Y-81280000D03*
X125730000Y-81280000D03*
X123190000Y-83820000D03*
X123190000Y-109220000D03*
X123190000Y-111760000D03*
X123190000Y-114300000D03*
X125730000Y-83820000D03*
X123190000Y-116840000D03*
X123190000Y-119380000D03*
X125730000Y-96520000D03*
X186690000Y-88900000D03*
X123190000Y-121920000D03*
X123190000Y-86360000D03*
X125730000Y-109220000D03*
%TD*%
D27*
%TO.C,U4*%
X201740000Y-92080000D03*
X201740000Y-89540000D03*
X201740000Y-87000000D03*
X201740000Y-84460000D03*
X194120000Y-92080000D03*
X194120000Y-89540000D03*
X194120000Y-87000000D03*
X194120000Y-84460000D03*
%TD*%
D23*
%TO.C,R10*%
X175260000Y-119380000D03*
D24*
X167640000Y-119380000D03*
%TD*%
D20*
%TO.C,H1*%
X110000000Y-57000000D03*
%TD*%
D10*
%TO.C,C2*%
X167640000Y-114895000D03*
X167640000Y-109895000D03*
%TD*%
D20*
%TO.C,H4*%
X200000000Y-147000000D03*
%TD*%
D17*
%TO.C,J3*%
X165970000Y-148740000D03*
D18*
X162220000Y-142240000D03*
D19*
X164720000Y-142240000D03*
X167220000Y-142240000D03*
X169720000Y-142240000D03*
%TD*%
D14*
%TO.C,U3*%
X173345000Y-98435000D03*
D11*
X170805000Y-98435000D03*
X168265000Y-98435000D03*
X165725000Y-98435000D03*
X165725000Y-106055000D03*
X168265000Y-106055000D03*
X170805000Y-106055000D03*
X173345000Y-106055000D03*
%TD*%
D21*
%TO.C,D1*%
X203200000Y-121450000D03*
D22*
X200660000Y-121450000D03*
%TD*%
D15*
%TO.C,J5*%
X109220000Y-63620000D03*
D16*
X109220000Y-66120000D03*
X109220000Y-68620000D03*
X109220000Y-71120000D03*
X109220000Y-73620000D03*
%TD*%
D21*
%TO.C,D4*%
X203200000Y-138430000D03*
D22*
X200660000Y-138430000D03*
%TD*%
D12*
%TO.C,SW2*%
X134625000Y-135382000D03*
D13*
X132085000Y-135382000D03*
%TD*%
M02*
